<!-- icon666.com - MILLIONS vector ICONS FREE --><svg id="Capa_1" enable-background="new 0 0 512.347 512.347" viewBox="0 0 512.347 512.347" xmlns="http://www.w3.org/2000/svg"><g><g><path d="m374 273.133v-219c0-5.523-4.477-10-10-10h-110c-5.523 0-10 4.477-10 10s4.477 10 10 10h100v199h-290v-199h100c5.523 0 10-4.477 10-10s-4.477-10-10-10h-110c-5.523 0-10 4.477-10 10v219c0 5.523 4.477 10 10 10h310c5.523 0 10-4.477 10-10z"></path><path d="m165.304 95.124-66.179 84.092c-3.132 3.98-2.794 9.674.787 13.256 30.076 30.075 69.582 45.113 109.088 45.113s79.012-15.038 109.088-45.113c3.581-3.582 3.919-9.275.787-13.256l-66.179-84.092c-3.02-3.837-8.372-4.933-12.656-2.589-19.147 10.469-42.935 10.469-62.08 0-4.286-2.344-9.635-1.248-12.656 2.589zm76.629 18.664 55.557 70.595c-24.494 21.521-55.588 33.275-88.49 33.275s-63.997-11.754-88.49-33.275l55.557-70.595c20.917 8.765 44.946 8.765 65.866 0z"></path><path d="m418.234 419.495h-28.89c-8.353 0-15.881 3.596-21.121 9.319h-74.021c-16.936 0-31.241 11.443-35.616 27h-206.706c-9.286 0-16.84-7.555-16.84-16.841s7.555-16.84 16.84-16.84h219.739c18.472 0 33.5-15.028 33.5-33.5s-15.028-33.5-33.5-33.5h-12.619v-28h109c27.57 0 50-22.43 50-50v-227c0-27.57-22.43-50-50-50h-318c-27.57 0-50 22.43-50 50v227c0 27.57 22.43 50 50 50h109v28h-12.62c-18.472 0-33.5 15.028-33.5 33.5 0 4.802 1.023 9.367 2.851 13.5h-63.851c-20.314 0-36.84 16.526-36.84 36.84s16.526 36.841 36.84 36.841h206.708c4.374 15.557 18.679 27 35.616 27h74.021c5.24 5.723 12.768 9.319 21.121 9.319h28.89c5.523 0 10-4.477 10-10v-72.638c-.002-5.523-4.479-10-10.002-10zm-398.234-142.362v-227c0-16.542 13.458-30 30-30h318c16.542 0 30 13.458 30 30v227c0 16.542-13.458 30-30 30h-318c-16.542 0-30-13.458-30-30zm159 50h60v28h-60zm-46.119 61.5c0-7.444 6.056-13.5 13.5-13.5h125.239c7.444 0 13.5 6.056 13.5 13.5s-6.056 13.5-13.5 13.5h-125.24c-7.443 0-13.499-6.056-13.499-13.5zm144.322 77.181c0-9.374 7.626-17 17-17h66.5v34h-66.5c-9.374 0-17-7.626-17-17zm131.031 26.319h-18.89c-4.765 0-8.642-3.877-8.642-8.642v-35.354c0-4.765 3.876-8.642 8.642-8.642h18.89z"></path><path d="m447.896 441.153c-3.905 3.905-3.905 10.237 0 14.142 2.79 2.79 4.327 6.5 4.327 10.445 0 3.946-1.537 7.655-4.327 10.445-3.905 3.905-3.905 10.237 0 14.143 1.953 1.953 4.512 2.929 7.071 2.929s5.119-.976 7.071-2.929c6.567-6.568 10.185-15.3 10.185-24.588s-3.617-18.02-10.185-24.587c-3.905-3.906-10.236-3.905-14.142 0z"></path><path d="m494.339 422.195c-3.905-3.906-10.237-3.905-14.142 0s-3.906 10.237 0 14.142c16.213 16.213 16.213 42.594 0 58.807-3.905 3.905-3.905 10.237 0 14.143 1.953 1.953 4.512 2.929 7.071 2.929s5.119-.976 7.071-2.929c24.011-24.012 24.011-63.081 0-87.092z"></path><circle cx="209" cy="54.132" r="10"></circle></g></g></svg>