<!-- icon666.com - MILLIONS vector ICONS FREE --><svg viewBox="-28 0 511 511.99984" xmlns="http://www.w3.org/2000/svg"><path d="m11.472656 176.441406 3.003906 1.65625c8.257813 4.550782 18.3125 3.023438 24.890626-3.253906 22.535156 12.417969 33.488281 16.863281 44.300781 31.726562 15.84375 21.78125 37.78125 37.617188 63.4375 45.804688l57.515625 18.351562c-10.542969 14.425782-8.203125 34.699219 5.703125 46.308594 6.75 5.632813 15.105469 8.289063 23.386719 7.925782-1.941407 11.574218 2.132812 23.855468 11.773437 31.902343 14.484375 12.09375 35.992187 10.160157 48.085937-4.328125l27.164063-32.539062c9.691406 1.125 19.496094-2.578125 26.003906-9.988282l9.210938 33.089844c-.308594 1.28125-.296875 2.652344.125 4l8.835937 28.265625v.003907c1.820313 5.824218 5.425782 9.683593 10.472656 11.898437-.242187 4.578125-5.441406 36.058594 5.882813 67.984375 10.808594 30.464844 33.179687 50.035156 64.6875 56.585938 5.617187 1.171874 10.382813-4.152344 8.6875-9.582032l-15.363281-49.144531c-1.234375-3.953125-5.441406-6.15625-9.394532-4.917969-3.953124 1.234375-6.15625 5.441406-4.921874 9.394532l11.195312 35.8125c-54.371094-20.992188-47.339844-91.304688-46.277344-99.789063.226563-1.804687.390625-3.625.488282-5.453125.425781-.121094 11.296874-3.523438 11.742187-3.664062l12.394531 39.640624c1.234375 3.953126 5.445313 6.15625 9.394532 4.917969 3.953124-1.234375 6.15625-5.441406 4.921874-9.394531l-13.839843-44.28125c3.269531-4.917969 4.101562-10.355469 2.253906-16.265625 24.15625 4.699219 43.796875-17.964844 36.402344-39.304687-12.933594-37.332032-31.632813-88.84375-43.585938-123.511719-5.121093-14.855469-13.90625-28.367188-25.40625-39.074219l-26.210937-24.402344c-3.035156-2.824218-7.78125-2.652344-10.601563.378906-2.820312 3.03125-2.652343 7.777344.378907 10.601563l26.210937 24.402344c9.710937 9.039062 17.125 20.441406 21.449219 32.980469 11.984375 34.761718 30.671875 86.246093 43.589844 123.539062 1.339843 3.859375.859374 8.046875-1.347657 11.78125-7.222656 12.207031-25.589843 9.585938-29.769531-.648438l-36.304688-91.929687c-5.761718-14.140625-15.78125-25.800781-28.480468-33.609375-10.183594-6.257812-8.097656-4.835938-108.578125-36.253906-4.667969-1.460938-9.417969.796875-11.355469 5.105468-1.984375 4.421876-.382812 9.410157 3.714844 11.875 38.234375 23.011719 77.097656 54 109.292968 84.632813 4.765626 4.539063 6.117188 11.960937 2.785157 18.003906l-2.109375 3.828125c-3.878906 7.039063-12.609375 9.53125-19.34375 6.324219-9.976563-4.640625-75.960938-35.320313-86.472656-40.210937-.285157-.132813-.582032-.25-.882813-.34375l-78.9375-25.1875c-22.597656-7.210938-41.917969-21.160157-55.871094-40.339844-13.117187-18.027344-27.144531-23.890625-48.324219-35.5625l67.769532-122.976563c17.664062 9.734375 39.683594 23.042969 75.53125 31.117188l85.824218 19.328125c11.605469 2.613281 22.34375 8.277344 31.046876 16.382812l14.914062 13.882813c3.03125 2.824219 7.777344 2.652343 10.597656-.378907 2.824219-3.03125 2.65625-7.777343-.378906-10.601562l-14.910156-13.878906c-10.648438-9.917969-23.777344-16.84375-37.972656-20.042969l-85.828126-19.328125c-33.714843-7.59375-53.996093-19.925781-72.96875-30.378906.929688-8.109375-2.917968-16.660156-10.832031-21.023438l-3.007812-1.65625c-10.246094-5.644531-23.179688-1.902344-28.824219 8.34375l-75.308594 136.644532c-5.644531 10.246093-1.902344 23.179687 8.34375 28.824218zm257.449219 23.949219 48.988281 15.316406c5.550782 17.75 4.28125 13.691407 9.84375 31.492188-19.953125-17.660157-40.789062-34.070313-58.832031-46.808594zm120.511719 128.421875-20.136719 6.296875-13.085937-47.011719c.378906-7.074218-1.859376-14.277344-6.15625-19.847656-5.855469-18.734375-8.691407-27.800781-14.0625-44.980469 19.632812 12.25 18.714843 17.609375 53.441406 105.542969zm13.671875 35.390625c0 .003906 0 .003906.003906.003906.667969 2.164063-1.734375 4.796875-4.558594 5.679688-7.433593 2.324219-4.6875 1.464843-12.121093 3.789062-2.925782.914063-6.285157.046875-6.96875-2.050781l-6.140626-22.058594 21.683594-6.777344c.714844 1.527344 1.804688 3.410157 2.96875 4.992188 3.339844 10.6875 2.351563 7.523438 5.132813 16.421875zm-183.167969-58.683594c-8.121094-6.777343-9.207031-18.835937-2.425781-26.957031l2.453125-2.941406c7.28125 2.324218.960937-.371094 36.421875 16.117187l-13.359375 14.855469c-7.0625 4.859375-16.460938 4.460938-23.089844-1.074219zm62.117188 37.402344c-6.777344 8.121094-18.839844 9.207031-26.957032 2.425781-7.363281-6.144531-10.140625-17.71875-1.429687-28.152344l16.941406-18.84375 35.046875 16.296876zm-265.785157-188.0625 75.308594-136.648437c1.628906-2.957032 5.4375-4.097657 8.441406-2.441407l3.003907 1.652344c2.984374 1.644531 4.085937 5.464844 2.445312 8.445313-.171875.308593-75.273438 136.585937-75.308594 136.644531-1.65625 3.003906-5.445312 4.101562-8.445312 2.445312l-3.003906-1.65625c-2.980469-1.640625-4.085938-5.460937-2.441407-8.441406zm0 0"></path></svg>