<!-- icon666.com - MILLIONS vector ICONS FREE --><svg viewBox="0 0 511 512" xmlns="http://www.w3.org/2000/svg"><path d="m270.042969 361.273438-46.246094-66.65625 41.9375-60.441407c33.230469-47.890625 46.105469-106.945312 35.714844-164.433593l-6.4375-35.636719-125.984375 181.574219-126.820313-182.773438-6.4375 35.636719c-10.367187 57.363281 2.410157 116.433593 35.714844 164.433593l42.769531 61.640626-47.078125 67.855468c-22.128906 2.496094-41.101562 14.160156-53.320312 31.769532-23.574219 33.976562-15.113281 80.796874 18.863281 104.375 13.011719 9.023437 27.898438 13.355468 42.648438 13.355468 23.773437 0 47.179687-11.253906 61.726562-32.222656 15.027344-21.65625 17.019531-48.523438 7.703125-71.269531l24.230469-34.921875 23.394531 33.722656c-9.3125 22.746094-7.324219 49.613281 7.703125 71.269531 14.550781 20.96875 37.949219 32.21875 61.726562 32.21875 14.746094 0 29.640626-4.328125 42.648438-13.355469 16.457031-11.417968 27.484375-28.5625 31.046875-48.277343 3.566406-19.714844-.761719-39.636719-12.183594-56.09375-12.210937-17.601563-31.183593-29.273438-53.320312-31.769531zm4.855469-245.554688c-1.234376 36.042969-12.765626 71.019531-33.8125 101.355469l-35.546876 51.230469-18.257812-26.3125zm-212.574219-1.199219 173.957031 250.714844c-6.050781 2.195313-11.863281 5.175781-17.289062 8.941406-2.988282 2.070313-5.761719 4.332031-8.351563 6.734375l-114.507813-165.035156c-21.046874-30.335938-32.578124-65.3125-33.808593-101.355469zm50.121093 348.128907c-14.144531 20.382812-42.234374 25.464843-62.625 11.316406-20.386718-14.144532-25.460937-42.238282-11.316406-62.625 14.207032-20.476563 42.230469-25.46875 62.625-11.316406 20.382813 14.144531 25.460938 42.238281 11.316406 62.625zm14.132813-80.539063c-2.589844-2.402344-5.363281-4.664063-8.347656-6.734375-5.429688-3.765625-11.242188-6.746094-17.292969-8.941406l31.574219-45.5 18.257812 26.3125zm160.820313 90.65625c-20.386719 14.144531-48.480469 9.070313-62.625-11.316406-14.144532-20.386719-9.066407-48.480469 11.316406-62.625 20.4375-14.179688 48.445312-9.121094 62.625 11.316406 14.179687 20.4375 9.117187 48.445313-11.316406 62.625zm0 0"></path><path d="m467.355469 0c-26.796875 0-108.65625 0-134.886719 0v30h89.886719v31h-89.886719v30h89.886719v30h-89.886719v30h89.886719v30h-89.886719v30h89.886719v30h-89.886719v30h89.886719v30h-89.886719v30h89.886719v136c0 24.8125 20.1875 45 45 45s45-20.1875 45-45v-422c0-24.8125-20.1875-45-45-45zm15 467c0 8.269531-6.730469 15-15 15-8.273438 0-15-6.730469-15-15v-437h15c8.269531 0 15 6.730469 15 15zm0 0"></path></svg>