<!-- icon666.com - MILLIONS vector ICONS FREE --><svg id="Layer_1" enable-background="new 0 0 100 100" viewBox="0 0 100 100" xmlns="http://www.w3.org/2000/svg"><path d="m71.6203003 50.0001831 13.9539185-13.9537964c5.9604492-5.9609375 5.9604492-15.659668 0-21.6206055-5.9609375-5.9609375-15.6591797-5.9609375-21.6201172 0l-13.9541016 13.9541016-13.9541016-13.9541016c-5.9609375-5.9609375-15.6591797-5.9609375-21.6201172 0-5.9604492 5.9609375-5.9604492 15.659668 0 21.6206055l13.9539185 13.9537964-13.9539185 13.9539185c-5.9609375 5.9604492-5.9609375 15.659668 0 21.6201172 2.9804688 2.9804688 6.8950195 4.4707031 10.8100586 4.4707031s7.8295898-1.4902344 10.8100586-4.4707031l13.9541016-13.9539795 13.9541016 13.9539795c2.9804688 2.9804688 6.8950195 4.4707031 10.8100586 4.4707031s7.8295898-1.4902344 10.8100586-4.4707031c5.9609375-5.9604492 5.9609375-15.659668 0-21.6201172zm-6.2521362-34.1603393c2.590332-2.590332 5.9931641-3.8857422 9.3959961-3.8857422s6.8056641 1.2954102 9.3959961 3.8857422c5.1806641 5.1811523 5.1806641 13.6113281 0 18.7924805l-13.9539185 13.9537963-18.7921753-18.7921753zm3.4240112 34.1603393-18.7921753 18.7919312-18.7921753-18.7919312 18.7921753-18.7921753zm-52.9523315-15.3678589c-5.1806641-5.1811523-5.1806641-13.6113281 0-18.7924805 5.1806641-5.1806641 13.6113281-5.1806641 18.7919922 0l13.9541016 13.9541016-18.7921754 18.7921753zm18.7919921 49.527832c-5.1806641 5.1806641-13.6113281 5.1806641-18.7919922 0-5.1806641-5.1811523-5.1806641-13.6108398 0-18.7919922l13.9539185-13.9539185 18.7921753 18.7919312zm49.5283203 0c-5.1806641 5.1806641-13.6113281 5.1806641-18.7919922 0l-13.9541015-13.9539794 18.7921753-18.7919312 13.9539185 13.9539185c5.180664 5.1811523 5.180664 13.6108398-.0000001 18.7919921z"></path><path d="m79.7480469 69.9770508c-.9575195 0-1.8725586.2749023-2.6552734.7880859l-3.8720703-3.8720703c.5131836-.7827148.7880859-1.6977539.7880859-2.6552734 0-1.2973633-.5053711-2.5170898-1.4228516-3.4345703-1.8935547-1.8935547-4.9755859-1.8935547-6.8691406 0-.8134766.8134766-1.2973633 1.8569336-1.3994141 2.9711914-1.1142578.1020508-2.1577148.5859375-2.9711914 1.3994141-1.894043 1.8935547-1.894043 4.9750977 0 6.8691406 1.652832 1.6542969 4.2128906 1.8637695 6.109375.6162109l3.8671875 3.8681641c-.5224609.7875977-.8027344 1.7109375-.8027344 2.6777344 0 1.2973633.5053711 2.5170898 1.4228516 3.4345703.9467773.9467773 2.190918 1.4204102 3.4345703 1.4204102s2.487793-.4736328 3.4345703-1.4204102c.8134766-.8134766 1.2973633-1.8569336 1.3994141-2.9711914 1.1142578-.1020508 2.1577148-.5859375 2.9711914-1.3994141 1.894043-1.8935547 1.894043-4.9755859 0-6.8691406-.9174805-.9174805-2.137207-1.4228516-3.4345703-1.4228516zm2.0205078 6.8779297c-.6420898.6416016-1.5268555.9370117-2.4345703.8022461-.3105469-.0429688-.6279297.059082-.8510742.2827148-.2231445.2231445-.328125.5385742-.2827148.8510742.1318359.9052734-.1606445 1.7924805-.8022461 2.4345703-1.1137695 1.1142578-2.9262695 1.1142578-4.0410156 0-.5400391-.5400391-.8369141-1.2573242-.8369141-2.0205078s.296875-1.4804688.8461914-2.0297852l.0185547-.019043c.3818359-.3916016.3779297-1.0180664-.0092773-1.4047852l-5.1411133-5.1416016c-.1875-.1875-.4511719-.2832031-.7163086-.2832031 0 0 0 0-.0004883 0-.2651367 0-.5288086.1147461-.7163086.3022461-1.1142578 1.1142578-2.9267578 1.1142578-4.0410156 0-1.1137695-1.1142578-1.1137695-2.9267578 0-4.0410156.6420898-.6416016 1.5283203-.9335938 2.4345703-.8022461.3110352.0439453.6279297-.0595703.8510742-.2827148s.328125-.5385742.2827148-.8510742c-.1318359-.9052734.1606445-1.7924805.8022461-2.4345703 1.1137695-1.1137695 2.9262695-1.1147461 4.0410156 0 .5400391.5400391.8369141 1.2573242.8369141 2.0205078s-.296875 1.4804688-.8369141 2.0205078c-.1875.1875-.2929688.4418945-.2929688.7070312s.1054688.5195312.2929688.7070312l5.1416016 5.1416016c.375.375 1.0390625.375 1.4140625 0 1.0800781-1.0800781 2.9609375-1.0800781 4.0410156 0 1.1137695 1.114258 1.1137695 2.926758 0 4.0410158z"></path></svg>