<!-- icon666.com - MILLIONS vector ICONS FREE --><svg clip-rule="evenodd" fill-rule="evenodd" image-rendering="optimizeQuality" shape-rendering="geometricPrecision" text-rendering="geometricPrecision" viewBox="0 0 512 512" xmlns="http://www.w3.org/2000/svg"><g id="Layer_x0020_1"><g id="_387565144"><g><g id="_387565408"><path d="m364 467c-18 0-36-8-50-22-25-26-29-64-8-85 9-9 22-14 36-14 18 0 36 8 50 22 25 25 29 64 7 85-9 9-21 14-35 14zm-22-107c-10 0-19 3-26 10-16 16-12 45 8 65 11 11 26 18 40 18 10 0 19-3 26-10 15-16 12-45-8-65-12-12-26-18-40-18z"></path></g><g id="_387565240"><path d="m302 386c-2 0-3 0-5-2-4-4-12-12-21-22-16-17-39-40-57-58-3-3-3-7-1-10 3-3 8-3 10 0 19 18 42 41 58 59l21 21c3 3 3 8 0 10-1 2-3 2-5 2zm39-26c-1 0-3-1-5-2l-83-84c-3-2-3-7 0-9 3-3 7-3 10 0l83 83c3 3 3 7 0 10-1 1-3 2-5 2zm-152-84c-1 0-2 0-3 0-26-14-49-32-69-54-3-3-2-7 0-10 3-2 8-2 10 1 20 21 41 38 65 50 4 2 5 6 3 10-1 2-3 3-6 3zm34-34c-1 0-3-1-4-2l-67-66c-3-3-3-7 0-10s7-3 10 0l66 66c3 3 3 7 0 10-1 1-3 2-5 2zm-131-57c-2 0-4-1-6-3-41-63-52-126-52-129-1-3 1-6 3-7 3-2 6-1 8 1l85 84c2 3 2 7 0 10-3 3-8 3-10 0l-67-66c7 23 20 62 45 99 2 4 1 8-2 10-1 1-3 1-4 1z"></path></g><g><g id="_387565312"><path d="m83 467c-14 0-27-5-36-14-10-11-15-25-13-42 1-16 9-31 21-43 14-14 32-22 50-22 14 0 27 5 36 14 21 21 17 59-8 85-14 14-32 22-50 22zm22-107c-14 0-28 6-40 18-10 10-16 22-17 35-2 12 2 23 9 30s16 10 26 10c14 0 28-7 40-18 20-20 24-49 8-65-7-7-16-10-26-10z"></path></g><g id="_387565264"><path d="m145 386c-2 0-4 0-5-2-3-2-3-7 0-10l21-21c41-43 78-82 92-89 62-32 99-88 118-130 11-23 19-44 23-59l-283 283c-3 3-8 3-10 0-3-3-3-7 0-10l301-301c2-2 5-3 8-1 2 1 4 4 3 7 0 2-7 40-29 87-20 43-59 102-125 137-12 6-62 58-88 85-9 10-17 18-21 22-2 2-3 2-5 2z"></path></g></g><g id="_387565576"><path d="m30 315c-6 0-11-2-16-5v-1c-9-6-14-17-14-27 0-7 4-13 9-17 28-19 47-47 68-77 29-42 62-90 127-117 6-3 15-5 21-6 58-8 103 8 140 25 4 1 5 5 4 9-2 4-6 5-9 4-37-17-79-31-133-24-5 1-13 3-18 5-61 25-92 69-121 112-21 31-41 60-71 80-1 1-3 2-3 7s3 12 8 15c8 6 18 1 25-4 32-25 52-55 71-83 26-39 50-75 100-97 34-15 77-2 111 12 4 1 5 5 4 9-1 3-6 5-9 4-31-13-71-25-101-12-46 21-69 55-93 91-20 30-40 61-75 87-8 7-17 10-25 10zm449-121c-3 0-5 0-8 0-31-4-65-19-100-35l-3-2c-4-1-5-5-4-9 2-3 6-5 10-3l2 1c35 15 68 30 96 34 9 1 20 0 24-9 3-5 2-13-1-17-2-4-5-4-5-4-36-3-68-18-102-34l-1-1c-4-1-5-6-3-9 1-4 5-5 9-3h1c33 16 63 31 97 33 6 0 12 4 16 10 5 9 6 21 2 31-5 11-15 17-30 17z"></path></g></g></g></g></svg>