<!-- icon666.com - MILLIONS vector ICONS FREE --><svg id="Capa_1" enable-background="new 0 0 512 512" viewBox="0 0 512 512" xmlns="http://www.w3.org/2000/svg"><g><path d="m256.004 87.353c-26.595 0-48.545 21.473-49.045 48.11-.209 11.15 3.237 21.724 9.966 30.578 5.149 6.774 13.182 10.572 21.488 10.572 2.709 0 5.448-.404 8.125-1.241 3.104-.971 6.623-1.483 10.176-1.483 3.3 0 6.466.422 9.407 1.254 11.095 3.14 22.985-.859 29.587-9.948 6.111-8.412 9.342-18.369 9.342-28.793 0-26.757-21.763-48.759-48.514-49.047-.177-.001-.356-.002-.532-.002zm34.046 49.048c0 7.236-2.239 14.144-6.478 19.977-2.97 4.09-8.218 5.79-13.368 4.331-4.271-1.208-8.811-1.82-13.49-1.82-5.124 0-10.054.729-14.652 2.167-4.871 1.525-10.175-.12-13.194-4.092-4.666-6.14-7.056-13.478-6.91-21.22.347-18.489 15.584-33.392 34.048-33.392.123 0 .247 0 .37.002h.001c18.566.2 33.673 15.473 33.673 34.047z"></path><path d="m198.921 106.248c4.961 0 9.685-1.722 13.202-5.238 7.818-7.819 6.765-21.596-2.35-30.71-.001 0-.001 0-.001 0-9.114-9.111-22.888-10.167-30.709-2.35-7.818 7.819-6.764 21.595 2.351 30.71 5.015 5.014 11.439 7.588 17.507 7.588zm-9.25-27.69c.591-.592 1.518-.896 2.619-.896 2.039 0 4.675 1.045 6.877 3.246 3.389 3.39 4.035 7.809 2.349 9.495-1.685 1.689-6.105 1.041-9.494-2.35-3.391-3.39-4.038-7.809-2.351-9.495z"></path><path d="m225.203 36.072c-5.356 1.674-9.676 5.888-11.851 11.561-1.97 5.14-2.081 11.082-.314 16.733 1.767 5.652 5.243 10.474 9.79 13.576 3.425 2.336 7.283 3.546 11.092 3.546 1.771 0 3.531-.262 5.231-.794 5.356-1.674 9.676-5.888 11.851-11.561 1.97-5.139 2.081-11.082.314-16.733 0-.001 0-.001 0-.001-3.845-12.301-15.56-19.624-26.113-16.327zm11.792 27.694c-.307.801-1.016 2.205-2.319 2.612-1.296.409-2.685-.343-3.394-.827-1.743-1.189-3.175-3.252-3.928-5.66-.753-2.407-.751-4.918.005-6.889.307-.802 1.017-2.206 2.318-2.613 3.03-.939 6.283 3.164 7.322 6.486.754 2.408.752 4.92-.004 6.891z"></path><path d="m317.198 62.816c-5.466.639-10.782 3.297-14.97 7.483 0 0 0 0-.001 0-9.113 9.114-10.168 22.89-2.351 30.71 3.518 3.517 8.24 5.238 13.202 5.238 6.067 0 12.493-2.575 17.508-7.588 9.114-9.114 10.168-22.891 2.35-30.709-3.968-3.969-9.71-5.838-15.738-5.134zm2.782 25.237c-3.391 3.39-7.811 4.036-9.496 2.351-1.687-1.687-1.04-6.106 2.35-9.496 1.784-1.783 4.01-2.947 6.106-3.192.85-.098 2.424-.124 3.389.843 1.688 1.685 1.041 6.104-2.349 9.494z"></path><path d="m286.798 36.072c-10.552-3.295-22.269 4.026-26.114 16.327v.001c-1.767 5.651-1.655 11.595.314 16.733 2.175 5.673 6.494 9.887 11.851 11.561 1.713.535 3.455.791 5.19.791 8.957 0 17.701-6.813 20.923-17.118 1.767-5.652 1.655-11.595-.314-16.734-2.174-5.673-6.494-9.887-11.85-11.561zm-2.152 23.82c-1.43 4.574-5.036 7.191-7.322 6.486-1.303-.407-2.012-1.812-2.318-2.612-.756-1.971-.758-4.482-.005-6.891 1.43-4.574 5.048-7.19 7.322-6.486 1.303.407 2.012 1.812 2.318 2.612.755 1.972.757 4.482.005 6.891z"></path><path d="m139.245 128.979c0 4.143 3.357 7.5 7.5 7.5h23.78c4.143 0 7.5-3.357 7.5-7.5s-3.357-7.5-7.5-7.5h-23.78c-4.142 0-7.5 3.357-7.5 7.5z"></path><path d="m146.745 149.699c-4.143 0-7.5 3.357-7.5 7.5s3.357 7.5 7.5 7.5h40.074c4.143 0 7.5-3.357 7.5-7.5s-3.357-7.5-7.5-7.5z"></path><path d="m365.255 121.479h-23.78c-4.143 0-7.5 3.357-7.5 7.5s3.357 7.5 7.5 7.5h23.78c4.143 0 7.5-3.357 7.5-7.5s-3.358-7.5-7.5-7.5z"></path><path d="m365.255 149.699h-40.073c-4.143 0-7.5 3.357-7.5 7.5s3.357 7.5 7.5 7.5h40.073c4.143 0 7.5-3.357 7.5-7.5s-3.358-7.5-7.5-7.5z"></path><path d="m489.586 243.242h8.238c7.816 0 14.176-6.359 14.176-14.176v-23.881c0-7.816-6.359-14.176-14.176-14.176h-95.608v-158.705c0-14.569-11.853-26.422-26.422-26.422h-184.204c-4.143 0-7.5 3.357-7.5 7.5s3.357 7.5 7.5 7.5h184.204c6.298 0 11.422 5.124 11.422 11.422v158.706h-262.432v-158.706c0-6.298 5.124-11.422 11.422-11.422h26.384c4.143 0 7.5-3.357 7.5-7.5s-3.357-7.5-7.5-7.5h-26.384c-14.569 0-26.422 11.853-26.422 26.422v158.706h-95.607c-7.818 0-14.177 6.359-14.177 14.176v23.881c0 7.816 6.359 14.176 14.177 14.176h8.238v247.876h-14.915c-4.143 0-7.5 3.357-7.5 7.5s3.357 7.5 7.5 7.5h497c4.143 0 7.5-3.357 7.5-7.5s-3.357-7.5-7.5-7.5h-14.914zm-474.586-37.232h482v22.232h-482zm459.586 37.232v160.603h-31.377v-108.262c0-7.455-6.064-13.52-13.52-13.52h-30.458c-4.143 0-7.5 3.357-7.5 7.5s3.357 7.5 7.5 7.5h28.978v142.36h-87.165v-142.36h29.188c4.143 0 7.5-3.357 7.5-7.5s-3.357-7.5-7.5-7.5h-132.834c-7.455 0-13.52 6.064-13.52 13.52v108.262h-53.44v-40.899c0-6.876-5.594-12.47-12.47-12.47h-83.418c-6.876 0-12.47 5.594-12.47 12.47v40.899h-24.665v-160.603zm-235.707 196.182v-142.36h87.165v142.36zm-201.464-20.579h24.665v24.394c0 4.143 3.357 7.5 7.5 7.5s7.5-3.357 7.5-7.5v-77.763h78.358v125.572h-78.358v-18.81c0-4.143-3.357-7.5-7.5-7.5s-7.5 3.357-7.5 7.5v18.88h-24.665zm133.023 72.273v-72.273h53.44v22.06c0 7.455 6.064 13.52 13.52 13.52h192.291c7.455 0 13.52-6.064 13.52-13.52v-22.06h31.377v72.273z"></path><path d="m133.379 450.46c4.143 0 7.5-3.357 7.5-7.5v-7.093c0-4.143-3.357-7.5-7.5-7.5s-7.5 3.357-7.5 7.5v7.093c0 4.143 3.357 7.5 7.5 7.5z"></path><path d="m88.186 318.433h6.042v6.041c0 6.503 5.29 11.794 11.793 11.794h20.478c6.503 0 11.793-5.291 11.793-11.794v-6.041h6.042c6.503 0 11.793-5.29 11.793-11.793v-20.478c0-6.503-5.29-11.794-11.793-11.794h-6.042v-6.041c0-6.503-5.29-11.794-11.793-11.794h-20.478c-6.503 0-11.793 5.291-11.793 11.794v6.041h-6.042c-6.503 0-11.793 5.291-11.793 11.794v20.478c0 6.503 5.29 11.793 11.793 11.793zm3.207-29.065h6.041c6.503 0 11.794-5.29 11.794-11.793v-6.042h14.063v6.042c0 6.503 5.291 11.793 11.794 11.793h6.041v14.064h-6.041c-6.503 0-11.794 5.291-11.794 11.794v6.041h-14.063v-6.041c0-6.503-5.291-11.794-11.794-11.794h-6.041z"></path></g></svg>