<!-- icon666.com - MILLIONS vector ICONS FREE --><svg id="Layer_1" viewBox="0 0 512 512" xmlns="http://www.w3.org/2000/svg"><g fill="rgb(0,0,0)"><path d="m414.369 144.48c-1.42-1.53-3.42-2.41-5.51-2.41h-154.45c-2.09 0-4.09.88-5.51 2.41s-2.13 3.59-1.97 5.67l17.15 221.74c1.67 21.71 18.09 39.25 38.89 43.06v25.86c0 12.4 10.09 22.5 22.5 22.5h12.33c12.41 0 22.5-10.1 22.5-22.5v-25.86c20.8-3.81 37.22-21.35 38.89-43.06l17.15-221.74c.16-2.08-.55-4.14-1.97-5.67zm-62.54 256.25h-40.4c-15.77 0-29.23-11.51-31.98-26.76h104.37c-2.75 15.25-16.21 26.76-31.99 26.76zm33.32-41.76h-107.03l-12.76-165h132.55z"></path><path d="m292.119 284.49c-.96 3.15-1.44 6.42-1.44 9.73 0 .5.01 1 .03 1.5v.11c.19 3.79 1.01 7.51 2.43 11.02 1.26 3.12 2.98 6.07 5.12 8.77.04.04.07.09.11.13 7.68 9.6 20.1 15.33 33.26 15.33 1.49 0 2.95-.07 4.33-.2 11.64-1.1 22.22-6.66 29.04-15.25.04-.06.09-.12.13-.17 2.08-2.65 3.76-5.54 5-8.6 1.42-3.54 2.24-7.25 2.42-11.04 0 0 0-.01 0-.02.03-.52.04-1.05.04-1.58 0-3.32-.48-6.58-1.44-9.73 2.08-7.55 4.5-15.05 7.2-22.34 1.05-2.84.29-6.04-1.94-8.11-2.23-2.06-5.48-2.58-8.24-1.3-6.65 3.07-13.62 5.57-20.75 7.45-3.65-1.38-7.49-2.26-11.45-2.63-4.54-.44-9.37-.17-13.86.8-2.14.45-4.23 1.07-6.26 1.83-7.12-1.88-14.09-4.38-20.75-7.45-2.77-1.28-6.02-.76-8.24 1.3-2.23 2.07-2.99 5.27-1.94 8.11 2.7 7.29 5.12 14.79 7.2 22.34z"></path><path d="m196.069 71.66h-39.21v-2.47c0-.48-.02-.95-.05-1.36-.7-11.85-10.57-21.14-22.45-21.14h-16.22c-12.41 0-22.5 10.09-22.5 22.5v365.51c0 8.19 3.19 15.88 8.96 21.64 5.79 5.79 13.47 8.97 21.65 8.97 16.88 0 30.61-13.73 30.61-30.61v-189.52h39.21c11.34 0 20.56-9.22 20.56-20.56v-10.47c0-11.34-9.22-20.56-20.56-20.56h-39.21v-9.37h39.21c11.34 0 20.56-9.23 20.56-20.57v-10.46c0-11.34-9.22-20.57-20.56-20.57h-39.21v-9.37h39.21c11.34 0 20.56-9.22 20.56-20.56v-10.47c0-11.34-9.22-20.56-20.56-20.56zm-54.21 363.04c0 8.61-7 15.61-15.61 15.61-4.17 0-8.09-1.62-11.04-4.58-2.95-2.94-4.57-6.85-4.57-11.03v-365.51c0-4.14 3.36-7.5 7.5-7.5h16.22c3.96 0 7.25 3.09 7.49 7.1 0 .13.01.26.01.4z"></path></g></svg>