<!-- icon666.com - MILLIONS vector ICONS FREE --><svg id="Capa_1" enable-background="new 0 0 512 512" viewBox="0 0 512 512" xmlns="http://www.w3.org/2000/svg"><g><g><path d="m240.538 187.939c-11.695 9.317-19.265 21.453-23.144 37.101-6.141 24.764.597 51.368 17.58 69.424 18.434 19.623 45.96 22.616 73.622 8.008 12.793-6.742 20.601-6.741 33.404-.006 11.614 6.141 23.2 9.175 34.104 9.174 15.054-.001 28.802-5.786 39.491-17.165 16.984-18.025 23.736-44.626 17.62-69.434-3.874-15.63-11.454-27.767-23.169-37.099l-52.313-41.716c-21.519-19.845-43.337-19.845-64.855-.001zm65.673-26.808c14.096-13.118 24.089-13.119 38.186 0 .186.173.379.339.578.498l52.607 41.95c8.142 6.487 13.449 15.081 16.22 26.261 4.506 18.274-.384 37.786-12.771 50.932-17.157 18.263-40.46 8.891-49.701 4.006-9.372-4.931-17.704-7.396-26.035-7.396-8.333 0-16.666 2.467-26.029 7.403-9.234 4.876-32.563 14.246-49.72-4.017-12.382-13.165-17.264-32.675-12.741-50.916 2.817-11.367 7.963-19.715 16.196-26.274l52.631-41.947c.199-.159.393-.326.579-.5z"></path><path d="m269.215 119.227c11.718 0 22.962-6.392 30.849-17.537 7.262-10.26 11.261-23.699 11.261-37.839 0-14.152-3.999-27.598-11.26-37.862-7.887-11.148-19.131-17.542-30.85-17.542-11.72 0-22.964 6.394-30.851 17.542-7.261 10.264-11.26 23.71-11.26 37.862 0 14.141 3.999 27.579 11.261 37.839 7.889 11.146 19.133 17.537 30.85 17.537zm0-90.782c11.78 0 22.113 16.545 22.113 35.406 0 18.847-10.333 35.378-22.113 35.378s-22.113-16.532-22.113-35.378c0-18.861 10.333-35.406 22.113-35.406z"></path><path d="m381.393 119.227c11.718 0 22.962-6.392 30.849-17.537 7.262-10.26 11.261-23.698 11.261-37.839 0-14.152-3.999-27.598-11.26-37.862-7.886-11.148-19.131-17.542-30.85-17.542-11.72 0-22.964 6.394-30.851 17.542-7.261 10.264-11.26 23.71-11.26 37.862 0 14.141 3.999 27.579 11.261 37.839 7.889 11.146 19.133 17.537 30.85 17.537zm0-90.782c11.78 0 22.113 16.545 22.113 35.406 0 18.847-10.333 35.378-22.113 35.378s-22.113-16.532-22.113-35.378c0-18.861 10.333-35.406 22.113-35.406z"></path><path d="m172.889 181.625c5.526 2.545 11.178 3.816 16.598 3.816 5.622 0 10.996-1.367 15.723-4.099 18.562-10.74 22.145-38.138 8.159-62.373-6.356-11.013-15.504-19.679-25.758-24.402-11.257-5.185-23.035-5.084-32.315.279-.002.001-.004.002-.006.003-18.562 10.74-22.146 38.138-8.159 62.373 6.355 11.014 15.503 19.68 25.758 24.403zm-7.586-69.467c4.905-2.83 10.84-.856 13.942.572 6.435 2.964 12.56 8.882 16.804 16.235 7.969 13.808 7.57 30.195-.848 35.066-4.906 2.833-10.843.859-13.946-.569-6.436-2.964-12.56-8.881-16.804-16.235-7.969-13.807-7.57-30.193.852-35.069z"></path><path d="m445.384 181.35c4.905 2.828 10.291 4.171 15.822 4.171 15.427 0 31.973-10.453 42.272-28.298 13.987-24.235 10.403-51.633-8.159-62.373-.004-.003-.009-.005-.014-.008-18.57-10.707-44.077-.11-58.066 24.128-13.98 24.224-10.412 51.62 8.145 62.38zm9.176-52.385c6.359-11.017 16.798-18.241 25.034-18.241 2.08 0 4.019.461 5.717 1.437 8.418 4.879 8.815 21.262.848 35.066-7.97 13.81-22.356 21.66-30.765 16.812-8.412-4.878-8.802-21.268-.834-35.074z"></path><path d="m452.272 340.71-76.1 39.084c-6.525-6.656-15.608-10.796-25.644-10.796h-52.32c-3.791-.189-5.814-2.21-6.749-3.09-42.419-39.955-78.301-37.434-119.154-21.344-1.862.74-3.706 1.547-5.645 2.069-1.865.503-3.778.629-5.7.708-3.995.165-7.996.078-11.994.081-.154-9.085-7.58-16.432-16.701-16.432h-115.55c-9.217 0-16.715 7.498-16.715 16.715v14.229c0 5.522 4.476 9.999 9.999 9.999s9.999-4.476 9.999-9.999v-10.947h53.862v111.683h-53.863v-10.947c0-5.522-4.476-9.999-9.999-9.999s-9.998 4.477-9.998 10v14.228c0 9.217 7.498 16.716 16.715 16.716h115.551c9.217 0 16.715-7.499 16.715-16.716v-.8h20.016c1.818 0 1.818 0 3.928.598.824.233 111.014 29.825 114.882 30.948 12.819 3.724 23.593 6.854 34.826 6.854 12.681 0 25.947-3.991 43.39-15.62.085-.057.169-.115.253-.174l122.732-87.388c15.967-11.4 20.627-31.981 10.823-47.898-9.693-15.638-30.135-20.695-47.559-11.762zm-323.287 121.96h-35.128v-111.683h35.128zm348.414-78.583-122.595 87.291c-25.063 16.674-35.725 13.58-61.418 6.117-3.953-1.148-8.039-2.335-12.603-3.573l-99.512-26.607c-1.197-.324-2.13-.588-2.891-.804-3.634-1.03-4.993-1.356-9.382-1.356h-20.016v-77.729c6.897 0 14.139.483 20.914-1.011 3.354-.739 6.582-1.991 9.766-3.256 35.602-14.02 63.064-15.684 98.09 17.308 2.542 2.393 5.146 4.824 8.322 6.356 3.764 1.816 8.013 2.172 12.135 2.172h52.32c8.786 0 15.934 7.148 15.934 15.935 0 8.802-7.148 15.963-15.934 15.963h-84.772c-5.522 0-9.999 4.476-9.999 9.999s4.476 9.999 9.999 9.999h84.772c19.813 0 35.932-16.132 35.932-35.96 0-2.582-.28-5.1-.8-7.529l75.741-38.899c7.028-3.604 16.647-3.213 21.417 4.481 4.203 6.823 1.869 15.899-5.42 21.103z"></path><path d="m9.999 416.827c5.522 0 9.999-4.476 9.999-9.999v-.057c0-5.522-4.476-9.97-9.999-9.97s-9.999 4.505-9.999 10.027c0 5.523 4.476 9.999 9.999 9.999z"></path></g></g></svg>