<!-- icon666.com - MILLIONS vector ICONS FREE --><svg version="1.1" id="Capa_1" xmlns="http://www.w3.org/2000/svg" xmlns:xlink="http://www.w3.org/1999/xlink" x="0px" y="0px" viewBox="0 0 512 512" style="enable-background:new 0 0 512 512;" xml:space="preserve"><g><g><g><path d="M483.228,479.243H28.763c-9.043,0-16.383,7.339-16.383,16.383S19.72,512,28.763,512h454.473 c9.043,0,16.383-7.322,16.383-16.374S492.28,479.243,483.228,479.243z"></path><path d="M28.763,215.278h454.473c9.043,0,16.383-7.339,16.383-16.383s-7.34-16.383-16.392-16.383H28.763 c-9.043,0-16.383,7.339-16.383,16.383S19.72,215.278,28.763,215.278z"></path><path d="M158.097,167.478c9.043,0,16.383-7.339,16.383-16.392V60.828c0-9.044-7.331-16.383-16.383-16.383H66.633 c-9.043,0-16.383,7.331-16.383,16.383v90.266c0,9.044,7.34,16.383,16.383,16.383c9.044,0,16.383-7.331,16.383-16.383V77.22 h58.698v73.874C141.714,160.138,149.045,167.478,158.097,167.478z"></path><path d="M66.633,227.924c-9.043,0-16.383,7.331-16.383,16.383v168.374c0,36.573,31.248,55.708,62.124,55.708 c30.867,0,62.106-19.134,62.106-55.708V244.307c0-9.044-7.34-16.383-16.383-16.383c-9.044,0-16.383,7.331-16.383,16.383v168.374 c0,18.114-18.442,22.942-29.34,22.942c-10.907,0-29.358-4.828-29.358-22.942V244.307 C83.016,235.264,75.676,227.924,66.633,227.924z"></path><path d="M66.118,32.766h92.503c9.052,0,16.383-7.339,16.383-16.383C175.004,7.34,167.673,0,158.621,0H66.118 c-9.052,0-16.383,7.34-16.383,16.383C49.735,25.427,57.065,32.766,66.118,32.766z"></path><path d="M301.737,167.478c9.044,0,16.383-7.339,16.392-16.392V60.828c0-9.044-7.339-16.383-16.392-16.383h-91.456 c-9.044,0-16.383,7.331-16.383,16.383v90.266c0,9.044,7.339,16.383,16.383,16.383c9.043,0,16.383-7.331,16.383-16.383V77.22 h58.69v73.874C285.354,160.138,292.684,167.478,301.737,167.478z"></path><path d="M210.272,227.924c-9.043,0-16.383,7.331-16.383,16.383v168.374c0,36.573,31.248,55.708,62.124,55.708 c30.867,0,62.106-19.134,62.115-55.708V244.307c0-9.044-7.339-16.383-16.392-16.383s-16.383,7.331-16.383,16.383v168.374 c0,18.114-18.442,22.942-29.34,22.942c-10.907,0-29.358-4.828-29.358-22.942V244.307 C226.655,235.264,219.316,227.924,210.272,227.924z"></path><path d="M209.749,32.766h92.503c9.052,0,16.392-7.339,16.392-16.383C318.643,7.34,311.304,0,302.251,0h-92.503 c-9.044,0-16.383,7.34-16.383,16.383C193.366,25.427,200.696,32.766,209.749,32.766z"></path><path d="M445.367,167.478c9.052,0,16.392-7.339,16.392-16.392V60.828c0-9.044-7.339-16.383-16.392-16.383h-91.464 c-9.052,0-16.383,7.331-16.383,16.383v90.266c0,9.044,7.331,16.383,16.383,16.383s16.383-7.331,16.383-16.383V77.22h58.69v73.874 C428.976,160.138,436.315,167.478,445.367,167.478z"></path><path d="M353.912,227.924c-9.052,0-16.383,7.331-16.383,16.383v168.374c0,36.573,31.248,55.708,62.124,55.708 c30.849,0,62.106-19.134,62.124-55.708V244.307c0-9.044-7.339-16.383-16.392-16.383s-16.392,7.331-16.392,16.383v168.374 c0,18.114-18.433,22.942-29.331,22.942c-10.907,0-29.367-4.828-29.367-22.942V244.307 C370.295,235.264,362.964,227.924,353.912,227.924z"></path><path d="M353.379,32.766h92.512c9.043,0,16.392-7.339,16.392-16.383C462.283,7.34,454.943,0,445.891,0h-92.512 c-9.052,0-16.392,7.34-16.392,16.383C336.988,25.427,344.327,32.766,353.379,32.766z"></path></g></g></g></svg>