<!-- icon666.com - MILLIONS vector ICONS FREE --><svg id="Layer_1" enable-background="new 0 0 510 510" viewBox="0 0 510 510" xmlns="http://www.w3.org/2000/svg"><g><path d="m.027 0v30h30v60h-30v285h30v60h30v75h30v-75h30v-60h30v-285h-30v-60h30v-30c-18.838 0-134.387 0-150 0zm90 405h-30v-30h30zm-60-60v-45h30v-30h-30v-30h30v-30h-30v-30h90v165zm90-195h-90v-30h90zm-30-60h-30v-60h30z"></path><path d="m485.576 168.638c-22.2-10.249-50.42 1.858-62.858 28.81-27.139 66.484 51.885 98.445 81.716 37.716v-.001c12.13-26.284 3.669-56.127-18.858-66.525zm-8.381 53.953c-5.023 10.884-15.8 17.488-23.049 14.143-4.121-1.902-5.768-6.356-6.382-8.843-2.811-11.371 3.865-25.884 14.37-31.136 3.412-1.707 7.418-2.472 10.869-.88 7.255 3.35 9.214 15.834 4.192 26.716z"></path><path d="m267.337 197.447c-12.49-27.062-40.739-39.018-62.858-28.81-22.528 10.397-30.988 40.241-18.857 66.524v.001c30.804 61.563 108.811 27.475 81.715-37.715zm-25.047 30.445c-.614 2.486-2.261 6.94-6.382 8.843-7.255 3.346-18.025-3.261-23.049-14.143-5.023-10.883-3.065-23.366 4.191-26.715 4.121-1.9 8.58-.265 10.869.88 10.217 4.813 17.337 20.237 14.371 31.135z"></path><path d="m345.027 210c25.233 0 45-26.355 45-60-1.652-79.628-88.354-79.615-90 .001 0 33.644 19.767 59.999 45 59.999zm0-90c6.116 0 15 11.686 15 30 0 18.313-8.884 30-15 30s-15-11.687-15-30c0-18.314 8.884-30 15-30z"></path><path d="m446.366 346.846c-10.678-42.709-54.379-76.846-98.423-76.846h-5.832c-44.023 0-87.74 34.115-98.424 76.847l-2.084 8.342c-12.97 53.735 55.085 88.092 90.673 46.044l7.192-8.629c2.895-3.475 8.229-3.467 11.117 0l7.191 8.627c21.161 25.396 60.601 25.074 81.184-1.29 9.954-12.749 13.412-29.06 9.491-44.752zm-48.518 43.154c-6.597 0-12.801-2.906-17.025-7.975l-7.19-8.627c-14.893-17.873-42.338-17.853-57.211 0l-7.193 8.629c-8.988 10.787-25.745 10.65-34.489-.55-4.229-5.416-5.698-12.347-4.031-19.015l2.083-8.34c7.336-29.338 39.08-54.123 69.32-54.123h5.832c30.24 0 61.984 24.785 69.318 54.122l2.086 8.342c3.493 13.981-7.069 27.537-21.5 27.537z"></path></g></svg>